<svg width="18" height="18" viewBox="0 0 18 18" fill="none" xmlns="http://www.w3.org/2000/svg">
<g clip-path="url(#clip0_169_1072)">
<path d="M1.50046 9.375C2.32887 9.375 3.00044 8.70344 3.00044 7.87503C3.00044 7.04662 2.32887 6.37506 1.50046 6.37506C0.672049 6.37506 0.000488281 7.04662 0.000488281 7.87503C0.000488281 8.70344 0.672049 9.375 1.50046 9.375Z" fill="white"/>
<path d="M12.0001 7.12506C11.7931 7.12506 11.6251 7.29307 11.6251 7.50006C11.6251 7.70706 11.7931 7.87507 12.0001 7.87507C15.0765 7.87507 17.25 10.689 17.25 11.25C17.25 11.457 17.418 11.625 17.625 11.625C17.832 11.625 18 11.457 18 11.25C18 10.0875 15.3391 7.12506 12.0001 7.12506Z" fill="white"/>
<path d="M17.6251 10.8749H14.2412C13.7402 10.8749 13.3074 10.5524 13.1627 10.0732L12.3347 7.33203L11.5848 5.83206C11.5218 5.70532 11.392 5.62506 11.2503 5.62506H10.1253C10.0256 5.62506 9.93028 5.66482 9.85979 5.73457L8.47007 7.12503H2.62549C2.4185 7.12503 2.25049 7.29304 2.25049 7.50003V8.25C2.25049 8.43299 2.38323 8.58974 2.56397 8.61973C3.93795 8.84922 6.27711 9.41245 6.81411 9.96519L6.83812 10.0117C7.54685 11.3992 8.42957 13.1249 10.1253 13.1249H15.3751C16.8714 13.1249 18.0001 12.3187 18.0001 11.2499C18.0001 11.0429 17.8321 10.8749 17.6251 10.8749Z" fill="white"/>
<path d="M2.22264 6.62785L1.47264 5.12787C1.38415 4.95086 1.17115 4.87362 0.988161 4.95311L0.226942 5.28086C0.0484586 5.3581 -0.0423125 5.55912 0.0192094 5.74362L0.394212 6.86859C0.460972 7.06507 0.673943 7.17082 0.86895 7.10557C1.02121 7.05533 1.11644 6.91658 1.12245 6.76509L1.45843 6.77859L1.55142 6.96383C1.61741 7.09506 1.75015 7.17082 1.88666 7.17082C1.94291 7.17082 1.9999 7.15806 2.05467 7.13106C2.23987 7.03807 2.31485 6.81308 2.22264 6.62785Z" fill="white"/>
<path d="M2.04347 8.66476C1.85897 8.57403 1.63324 8.6475 1.54022 8.83277L1.49297 8.92575C1.45848 8.75402 1.30696 8.625 1.12549 8.625C0.918496 8.625 0.750488 8.79301 0.750488 9V9.74996C0.750488 9.95695 0.918496 10.125 1.12549 10.125H1.50049C1.64224 10.125 1.772 10.0447 1.83574 9.91797L2.21074 9.168C2.30295 8.98277 2.2287 8.75701 2.04347 8.66476Z" fill="white"/>
<path d="M10.8751 3.37512C10.6681 3.37512 10.5001 3.54313 10.5001 3.75012V4.12513C10.5001 4.33212 10.6681 4.50013 10.8751 4.50013C11.0821 4.50013 11.2501 4.33212 11.2501 4.12513V3.75012C11.2501 3.54313 11.0821 3.37512 10.8751 3.37512Z" fill="white"/>
<path d="M17.625 4.12512H10.8751C10.6681 4.12512 10.5001 4.29313 10.5001 4.50012C10.5001 4.70712 10.6681 4.87513 10.8751 4.87513H17.625C17.832 4.87513 18 4.70712 18 4.50012C18 4.29313 17.832 4.12512 17.625 4.12512Z" fill="white"/>
<path d="M10.8752 4.12512H4.12537C3.91837 4.12512 3.75037 4.29313 3.75037 4.50012C3.75037 4.70712 3.91837 4.87513 4.12537 4.87513H10.8752C11.0822 4.87513 11.2502 4.70712 11.2502 4.50012C11.2502 4.29313 11.0822 4.12512 10.8752 4.12512Z" fill="white"/>
<path d="M12.3752 12.3749C12.1683 12.3749 12.0002 12.5429 12.0002 12.7499V14.2499C12.0002 14.4569 12.1683 14.6249 12.3752 14.6249C12.5822 14.6249 12.7502 14.4569 12.7502 14.2499V12.7499C12.7502 12.5429 12.5822 12.3749 12.3752 12.3749Z" fill="white"/>
<path d="M15.3751 12.3749C15.1681 12.3749 15.0001 12.5429 15.0001 12.7499V14.2499C15.0001 14.4569 15.1681 14.6249 15.3751 14.6249C15.5821 14.6249 15.7501 14.4569 15.7501 14.2499V12.7499C15.7501 12.5429 15.5821 12.3749 15.3751 12.3749Z" fill="white"/>
<path d="M17.8081 13.1729C17.6273 13.0717 17.3986 13.1362 17.2973 13.3169C17.1196 13.6341 16.3951 13.8321 16.1251 13.8749H8.62525C8.41825 13.8749 8.25024 14.0429 8.25024 14.2499C8.25024 14.4569 8.41825 14.6249 8.62525 14.6249L16.1768 14.6211C16.3156 14.6016 17.5448 14.4104 17.952 13.6829C18.0533 13.5021 17.9888 13.2741 17.8081 13.1729Z" fill="white"/>
</g>
<defs>
<clipPath id="clip0_169_1072">
<rect width="18" height="18" fill="white"/>
</clipPath>
</defs>
</svg>
