<svg viewBox="0 0 18 12" fill="none" xmlns="http://www.w3.org/2000/svg">
    <path d="M1.50046 6.375C2.32887 6.375 3.00044 5.70344 3.00044 4.87503C3.00044 4.04662 2.32887 3.37506 1.50046 3.37506C0.672049 3.37506 0.000488281 4.04662 0.000488281 4.87503C0.000488281 5.70344 0.672049 6.375 1.50046 6.375Z" fill="white" />
    <path d="M12.0001 4.12506C11.7931 4.12506 11.6251 4.29307 11.6251 4.50006C11.6251 4.70706 11.7931 4.87507 12.0001 4.87507C15.0765 4.87507 17.25 7.68901 17.25 8.24998C17.25 8.45698 17.418 8.62498 17.625 8.62498C17.832 8.62498 18 8.45698 18 8.24998C18 7.0875 15.3391 4.12506 12.0001 4.12506Z" fill="white" />
    <path d="M17.6251 7.87491H14.2412C13.7402 7.87491 13.3074 7.55243 13.1627 7.07319L12.3347 4.33203L11.5848 2.83206C11.5218 2.70532 11.392 2.62506 11.2503 2.62506H10.1253C10.0256 2.62506 9.93028 2.66482 9.85979 2.73457L8.47007 4.12503H2.62549C2.4185 4.12503 2.25049 4.29304 2.25049 4.50003V5.25C2.25049 5.43299 2.38323 5.58974 2.56397 5.61973C3.93795 5.84922 6.27711 6.41245 6.81411 6.96519L6.83812 7.0117C7.54685 8.39918 8.42957 10.1249 10.1253 10.1249H15.3751C16.8714 10.1249 18.0001 9.31867 18.0001 8.24994C18.0001 8.04288 17.8321 7.87491 17.6251 7.87491Z" fill="white" />
    <path d="M2.22264 3.62785L1.47264 2.12787C1.38415 1.95086 1.17115 1.87362 0.988161 1.95311L0.226942 2.28086C0.0484586 2.3581 -0.0423125 2.55912 0.0192094 2.74362L0.394212 3.86859C0.460972 4.06507 0.673943 4.17082 0.86895 4.10557C1.02121 4.05533 1.11644 3.91658 1.12245 3.76509L1.45843 3.77859L1.55142 3.96383C1.61741 4.09506 1.75015 4.17082 1.88666 4.17082C1.94291 4.17082 1.9999 4.15806 2.05467 4.13106C2.23987 4.03807 2.31485 3.81308 2.22264 3.62785Z" fill="white" />
    <path d="M2.04347 5.66476C1.85897 5.57403 1.63324 5.6475 1.54022 5.83277L1.49297 5.92575C1.45848 5.75402 1.30696 5.625 1.12549 5.625C0.918496 5.625 0.750488 5.79301 0.750488 6V6.74996C0.750488 6.95695 0.918496 7.12496 1.12549 7.12496H1.50049C1.64224 7.12496 1.772 7.0447 1.83574 6.91797L2.21074 6.168C2.30295 5.98277 2.2287 5.75701 2.04347 5.66476Z" fill="white" />
    <path d="M10.8751 0.375122C10.6681 0.375122 10.5001 0.543129 10.5001 0.750124V1.12513C10.5001 1.33212 10.6681 1.50013 10.8751 1.50013C11.0821 1.50013 11.2501 1.33212 11.2501 1.12513V0.750124C11.2501 0.543129 11.0821 0.375122 10.8751 0.375122Z" fill="white" />
    <path d="M17.625 1.12512H10.8751C10.6681 1.12512 10.5001 1.29313 10.5001 1.50012C10.5001 1.70712 10.6681 1.87513 10.8751 1.87513H17.625C17.832 1.87513 18 1.70712 18 1.50012C18 1.29313 17.832 1.12512 17.625 1.12512Z" fill="white" />
    <path d="M10.8752 1.12512H4.12537C3.91837 1.12512 3.75037 1.29313 3.75037 1.50012C3.75037 1.70712 3.91837 1.87513 4.12537 1.87513H10.8752C11.0822 1.87513 11.2502 1.70712 11.2502 1.50012C11.2502 1.29313 11.0822 1.12512 10.8752 1.12512Z" fill="white" />
    <path d="M12.3752 9.37494C12.1683 9.37494 12.0002 9.54295 12.0002 9.74994V11.2499C12.0002 11.4569 12.1683 11.6249 12.3752 11.6249C12.5822 11.6249 12.7502 11.4569 12.7502 11.2499V9.74994C12.7502 9.54295 12.5822 9.37494 12.3752 9.37494Z" fill="white" />
    <path d="M15.3751 9.37494C15.1681 9.37494 15.0001 9.54295 15.0001 9.74994V11.2499C15.0001 11.4569 15.1681 11.6249 15.3751 11.6249C15.5821 11.6249 15.7501 11.4569 15.7501 11.2499V9.74994C15.7501 9.54295 15.5821 9.37494 15.3751 9.37494Z" fill="white" />
    <path d="M17.8081 10.1729C17.6273 10.0717 17.3986 10.1362 17.2973 10.3169C17.1196 10.6341 16.3951 10.8321 16.1251 10.8749H8.62525C8.41825 10.8749 8.25024 11.0429 8.25024 11.2499C8.25024 11.4569 8.41825 11.6249 8.62525 11.6249L16.1768 11.6211C16.3156 11.6016 17.5448 11.4104 17.952 10.6829C18.0533 10.5021 17.9888 10.2741 17.8081 10.1729Z" fill="white" />
</svg>