<svg width="62" height="68" viewBox="0 0 62 68" fill="none" xmlns="http://www.w3.org/2000/svg">
<g filter="url(#filter0_d_4_113)">
<path d="M46.5673 32.9773C46.0369 32.447 45.3932 32.182 44.6353 32.182H43.7267V26.7271C43.7267 23.2423 42.477 20.2502 39.9769 17.7502C37.477 15.2501 34.4852 14 30.9999 14C27.5147 14 24.5222 15.2501 22.0225 17.7501C19.5224 20.2502 18.2727 23.2422 18.2727 26.7271V32.182H17.3638C16.6065 32.182 15.9624 32.447 15.432 32.9773C14.9017 33.5073 14.6366 34.1513 14.6366 34.9094V51.2728C14.6366 52.0301 14.9018 52.6744 15.432 53.2049C15.9624 53.7347 16.6065 54 17.3638 54H44.636C45.3939 54 46.0375 53.735 46.568 53.2049C47.0979 52.6744 47.3634 52.0301 47.3634 51.2728V34.9091C47.3638 34.1516 47.0979 33.5077 46.5673 32.9773ZM38.2724 32.182H23.7273V26.7271C23.7273 24.7197 24.4376 23.0055 25.858 21.5853C27.2786 20.1649 28.9925 19.4549 31.0002 19.4549C33.008 19.4549 34.7215 20.1648 36.1422 21.5853C37.5622 23.0054 38.2724 24.7197 38.2724 26.7271V32.182Z" fill="white"/>
</g>
<defs>
<filter id="filter0_d_4_113" x="0.636597" y="0" width="60.7268" height="68" filterUnits="userSpaceOnUse" color-interpolation-filters="sRGB">
<feFlood flood-opacity="0" result="BackgroundImageFix"/>
<feColorMatrix in="SourceAlpha" type="matrix" values="0 0 0 0 0 0 0 0 0 0 0 0 0 0 0 0 0 0 127 0" result="hardAlpha"/>
<feOffset/>
<feGaussianBlur stdDeviation="7"/>
<feComposite in2="hardAlpha" operator="out"/>
<feColorMatrix type="matrix" values="0 0 0 0 1 0 0 0 0 1 0 0 0 0 1 0 0 0 0.55 0"/>
<feBlend mode="normal" in2="BackgroundImageFix" result="effect1_dropShadow_4_113"/>
<feBlend mode="normal" in="SourceGraphic" in2="effect1_dropShadow_4_113" result="shape"/>
</filter>
</defs>
</svg>
