<svg viewBox="0 0 16 12" fill="none" xmlns="http://www.w3.org/2000/svg">
    <path d="M13.6562 6.9375C13.2722 6.9375 12.9148 7.03918 12.5946 7.20361L11.9611 6.45068C12.2419 6.28467 12.5458 6.15698 12.8669 6.08508C13.1288 6.02612 13.3883 6.00452 13.6588 6.00049C14.0082 6.00317 14.3519 5.86536 14.6091 5.61047C14.8774 5.34497 15.0312 4.97559 15.0312 4.53882C15.0312 2.13806 13.0088 0.375 10.8734 0.375H10.3438C10.0847 0.375 9.875 0.584717 9.875 0.84375C9.875 1.10278 10.0847 1.3125 10.3438 1.3125H10.8734C11.0131 1.3125 11.1462 1.33655 11.2812 1.35388V2.25964C11.009 2.2843 10.7527 2.36853 10.5101 2.48145C10.5071 2.47791 10.5032 2.47559 10.5002 2.47205C10.1155 2.65198 9.78381 2.93335 9.54358 3.2937L8.47656 4.89404C8.40332 5.00342 8.28796 5.07715 8.15747 5.09729C7.2085 5.24316 6.38586 5.84814 5.95386 6.73157C6.35425 7.32996 6.59375 8.04285 6.59375 8.8125H5.625C5.625 7.2616 4.3634 6 2.8125 6C1.2616 6 0 7.2616 0 8.8125C0 10.3634 1.2616 11.625 2.8125 11.625C4.03308 11.625 5.06396 10.8389 5.45227 9.75H9.875C10.134 9.75 10.3438 9.54028 10.3438 9.28125C10.3438 9.02075 10.3749 8.75476 10.4358 8.49121C10.5635 7.94385 10.8481 7.44568 11.2302 7.0387L11.8629 7.79053C11.5244 8.1969 11.3125 8.71228 11.3125 9.28125C11.3125 10.5735 12.364 11.625 13.6562 11.625C14.9485 11.625 16 10.5735 16 9.28125C16 7.98901 14.9485 6.9375 13.6562 6.9375ZM2.8125 10.6875C1.77844 10.6875 0.9375 9.84656 0.9375 8.8125C0.9375 7.77844 1.77844 6.9375 2.8125 6.9375C3.84656 6.9375 4.6875 7.77844 4.6875 8.8125H3.28125C3.02258 8.8125 2.8125 8.60242 2.8125 8.34375C2.8125 8.08472 2.60278 7.875 2.34375 7.875C2.08472 7.875 1.875 8.08472 1.875 8.34375C1.875 9.11914 2.50586 9.75 3.28125 9.75H4.42676C4.10156 10.3077 3.50354 10.6875 2.8125 10.6875ZM13.6562 10.6875C12.8809 10.6875 12.25 10.0566 12.25 9.28125C12.25 9.00964 12.3309 8.75806 12.4648 8.54272L13.29 9.57422C13.453 9.77747 13.7482 9.80811 13.9492 9.64746C14.1511 9.48535 14.1841 9.19067 14.0225 8.98828L13.1982 7.95801C13.3425 7.90784 13.495 7.875 13.6562 7.875C14.4316 7.875 15.0625 8.50586 15.0625 9.28125C15.0625 10.0566 14.4316 10.6875 13.6562 10.6875Z" fill="white" />
    <path d="M7.96045 3.97839L8.76355 2.77368C9.02026 2.38843 9.35693 2.07544 9.73938 1.8324C9.22498 1.50757 8.63196 1.3125 8 1.3125C6.89246 1.3125 5.86938 1.87708 5.26721 2.78247L6.01697 3.23242C6.61926 3.59375 7.27881 3.83569 7.96045 3.97839Z" fill="white" />
    <path d="M5.53455 4.03613L2.52649 2.25H0.46875C0.209717 2.25 0 2.45972 0 2.71875C0 4.01099 1.05151 5.0625 2.34375 5.0625C3.28137 5.0625 4.25403 5.08289 5.29614 5.98877C5.30017 5.98132 5.30017 5.9729 5.30469 5.9657C5.66833 5.38098 6.18176 4.92761 6.77039 4.60901C6.34424 4.45312 5.927 4.27148 5.53455 4.03613Z" fill="white" />
</svg>