<svg viewBox="0 0 18 14" fill="none" xmlns="http://www.w3.org/2000/svg">
<g clip-path="url(#clip0_169_1124)">
<path d="M14.6484 9.05066C13.3819 9.05066 12.3516 10.0811 12.3516 11.3475C12.3516 12.614 13.3819 13.6444 14.6484 13.6444C15.9149 13.6444 16.9453 12.614 16.9453 11.3475C16.9453 10.0811 15.9149 9.05066 14.6484 9.05066Z" fill="white"/>
<path d="M3.35159 9.05066C2.08508 9.05066 1.05469 10.0811 1.05469 11.3475C1.05469 12.614 2.08508 13.6444 3.35159 13.6444C4.61802 13.6444 5.64834 12.614 5.64834 11.3475C5.64834 10.0811 4.61802 9.05066 3.35159 9.05066Z" fill="white"/>
<path d="M6.70304 11.3475H11.2969C11.2969 10.9088 11.3821 10.4897 11.5361 10.1053H6.46387C6.61782 10.4897 6.70304 10.9088 6.70304 11.3475Z" fill="white"/>
<path d="M17.7543 5.2532L10.1288 0.437109C10.0445 0.383882 9.94687 0.355652 9.84717 0.355652H8.71756C8.42629 0.355652 8.19022 0.591761 8.19022 0.882996C8.19022 1.17423 8.42629 1.41034 8.71756 1.41034H9.69459L11.2915 2.4189L8.79709 5.14L7.89923 5.02029V9.05067H12.2101C12.8216 8.40176 13.6884 7.99598 14.6483 7.99598C15.5114 7.99598 16.2991 8.32392 16.8939 8.8616C17.5473 8.54934 18 7.88236 18 7.11117V5.69905C18 5.51814 17.9072 5.34981 17.7543 5.2532Z" fill="white"/>
<path d="M6.84453 4.87964L1.9967 4.23325C1.9125 4.22204 1.82749 4.21631 1.744 4.21631C0.766019 4.21631 0 4.99164 0 5.98143V7.11114C0 7.88233 0.452707 8.54932 1.10605 8.86154C1.70075 8.32382 2.48861 7.99592 3.35159 7.99592C4.31153 7.99592 5.17834 8.4017 5.78985 9.05061H6.84453V4.87964Z" fill="white"/>
</g>
<defs>
<clipPath id="clip0_169_1124">
<rect width="18" height="14" fill="white"/>
</clipPath>
</defs>
</svg>
