<svg viewBox="0 0 13 14" xmlns="http://www.w3.org/2000/svg" fill="none">
    <mask id="b" width="13" height="14" x="0" y="0" maskUnits="userSpaceOnUse" style="mask-type:alpha">
        <path fill="url(#a)" d="M1.182 0C.537 0 0 .53 0 1.167v12.25c0 .322.265.583.59.583h7.092c.326 0 .59-.261.59-.583v-2.625c0-.161.133-.292.296-.292h.296c.333 0 .59.254.59.583v.584c0 .96.801 1.75 1.773 1.75.972 0 1.773-.79 1.773-1.75V4.083c0-.55-.263-1.07-.709-1.4l-1.891-1.4a.597.597 0 0 0-.828.117.58.58 0 0 0 .12.817l.708.524a.58.58 0 0 1 .236.467v1.459c0 .538.383 1 .89 1.13.158.04.292.167.292.328v5.542a.579.579 0 0 1-.59.583.578.578 0 0 1-.592-.583v-.584c0-.96-.8-1.75-1.772-1.75h-.296a.294.294 0 0 1-.295-.291V1.167C8.273.53 7.735 0 7.09 0H1.18Zm2.954 3.5a.49.49 0 0 1 .375.175.476.476 0 0 1 .1.397L4.195 6.13a.236.236 0 0 0 .134.263.245.245 0 0 0 .104.023h.886a.45.45 0 0 1 .356.175.437.437 0 0 1 .072.385L4.89 9.94a.773.773 0 0 1-.282.405.79.79 0 0 1-.472.156.49.49 0 0 1-.375-.175.476.476 0 0 1-.1-.397l.418-2.059a.236.236 0 0 0-.134-.263.245.245 0 0 0-.104-.023h-.886a.45.45 0 0 1-.356-.175.437.437 0 0 1-.073-.385l.857-2.962a.773.773 0 0 1 .281-.405.79.79 0 0 1 .472-.156Z" />
    </mask>
    <g mask="url(#b)">
        <path fill="url(#c)" d="M1.182 0C.537 0 0 .53 0 1.167v12.25c0 .322.265.583.59.583h7.092c.326 0 .59-.261.59-.583v-2.625c0-.161.133-.292.296-.292h.296c.333 0 .59.254.59.583v.584c0 .96.801 1.75 1.773 1.75.972 0 1.773-.79 1.773-1.75V4.083c0-.55-.263-1.07-.709-1.4l-1.891-1.4a.597.597 0 0 0-.828.117.58.58 0 0 0 .12.817l.708.524a.58.58 0 0 1 .236.467v1.459c0 .538.383 1 .89 1.13.158.04.292.167.292.328v5.542a.579.579 0 0 1-.59.583.578.578 0 0 1-.592-.583v-.584c0-.96-.8-1.75-1.772-1.75h-.296a.294.294 0 0 1-.295-.291V1.167C8.273.53 7.735 0 7.09 0H1.18Zm2.954 3.5a.49.49 0 0 1 .375.175.476.476 0 0 1 .1.397L4.195 6.13a.236.236 0 0 0 .134.263.245.245 0 0 0 .104.023h.886a.45.45 0 0 1 .356.175.437.437 0 0 1 .072.385L4.89 9.94a.773.773 0 0 1-.282.405.79.79 0 0 1-.472.156.49.49 0 0 1-.375-.175.476.476 0 0 1-.1-.397l.418-2.059a.236.236 0 0 0-.134-.263.245.245 0 0 0-.104-.023h-.886a.45.45 0 0 1-.356-.175.437.437 0 0 1-.073-.385l.857-2.962a.773.773 0 0 1 .281-.405.79.79 0 0 1 .472-.156Z" />
        <path fill="#8C8DA0" d="M-1 0h15v4H-1z" />
    </g>
    <defs>
        <linearGradient id="a" x1="5.2" x2="5.2" y1="0" y2="14" gradientUnits="userSpaceOnUse">
            <stop stop-color="#32ADFF" />
            <stop offset="1" stop-color="#006FD7" />
        </linearGradient>
        <linearGradient id="c" x1="5.2" x2="5.2" y1="0" y2="14" gradientUnits="userSpaceOnUse">
            <stop stop-color="#32ADFF" />
            <stop offset="1" stop-color="#006FD7" />
        </linearGradient>
    </defs>
</svg>